<svg width="30" height="30" viewBox="0 0 30 30" fill="none" xmlns="http://www.w3.org/2000/svg">
<path d="M22.04 1.44801C22.04 0.744009 21.336 0.0400085 20.632 0.0400085H9.36796C8.66396 0.0400085 7.95996 0.744009 7.95996 1.44801V1.80001H22.04V1.44801Z" fill="#999999"/>
<path d="M25.56 4.968C25.56 4.264 24.856 3.56 24.152 3.56H5.848C5.144 3.56 4.44 4.264 4.44 4.968V5.32H25.56V4.968Z" fill="#999999"/>
<path d="M11.48 23.976L20.28 18.52L11.48 13.064V23.976Z" fill="#999999"/>
<path d="M25.208 7.08002H4.61598C2.67998 7.08002 0.919983 8.84002 0.919983 10.776V26.264C0.919983 28.2 2.67998 29.96 4.61598 29.96H25.384C27.32 29.96 29.08 28.2 29.08 26.088V10.776C29.08 8.84002 27.32 7.08002 25.208 7.08002ZM27.144 10.776V26.264C27.144 27.32 26.264 28.2 25.2084 28.2H4.61598C3.55998 28.2 2.67998 27.32 2.67998 26.088V10.776C2.67998 9.72002 3.55998 8.84002 4.61598 8.84002H25.384C26.44 8.84002 27.32 9.72002 27.144 10.776Z" fill="#999999"/>
</svg>
