<svg width="26" height="16" viewBox="0 0 26 16" fill="none" xmlns="http://www.w3.org/2000/svg">
<path fill-rule="evenodd" clip-rule="evenodd" d="M20.644 10.828V5.00402L25.6 2.00802V13.824L20.644 10.828ZM18.432 15.308H1.91202C1.07202 15.308 0.400024 14.664 0.400024 13.852V2.14802C0.400024 1.33602 1.07202 0.692017 1.91202 0.692017H18.432C19.272 0.692017 19.944 1.33602 19.944 2.14802V13.824C19.944 14.664 19.272 15.308 18.432 15.308ZM16.92 3.80002C16.92 3.49202 16.668 3.24002 16.36 3.24002H13.112C12.804 3.24002 12.552 3.49202 12.552 3.80002V4.36002C12.552 4.66802 12.804 4.92002 13.112 4.92002H16.332C16.64 4.92002 16.892 4.66802 16.892 4.36002V3.80002H16.92Z" fill="#3860AD"/>
</svg>
