<svg width="11" height="15" viewBox="0 0 11 15" fill="none" xmlns="http://www.w3.org/2000/svg">
<path d="M0.703613 13.6286V1.37139C0.703613 1.00958 1.11182 0.798055 1.40684 1.00587L10.1053 7.13448C10.3576 7.3126 10.3576 7.68741 10.1053 7.86554L1.40869 13.9941C1.11182 14.202 0.703613 13.9904 0.703613 13.6286Z" fill="white"/>
<path d="M0.981904 13.6286C0.981904 13.4152 0.981904 13.2 0.981904 12.9866C0.981904 12.4318 0.981904 11.8771 0.981904 11.3204C0.981904 10.556 0.981904 9.78965 0.981904 9.0252C0.981904 8.18096 0.981904 7.33672 0.981904 6.49249C0.981904 5.7002 0.981904 4.90792 0.981904 4.11563C0.981904 3.50704 0.981904 2.89659 0.981904 2.28799C0.981904 1.99298 0.980048 1.6961 0.981904 1.40108C0.981904 1.39366 0.981904 1.38438 0.981904 1.37696C0.981904 1.3751 0.981904 1.37325 0.981904 1.37325C0.981904 1.36583 0.981904 1.35469 0.981904 1.34913C0.983759 1.29532 0.983759 1.34356 0.980048 1.35469C0.985615 1.33243 0.991181 1.31202 0.998603 1.28975C0.980048 1.34542 1.00788 1.28047 1.02087 1.26006C1.0153 1.2712 0.981904 1.29903 1.01716 1.26749C1.02643 1.25821 1.03757 1.24708 1.04685 1.2378C1.08024 1.20255 1.0487 1.2378 1.03942 1.24337C1.05056 1.2378 1.06354 1.22852 1.07468 1.2211C1.11179 1.19512 1.07653 1.21924 1.0654 1.22296C1.08581 1.21553 1.10436 1.20997 1.12478 1.2044C1.17116 1.18956 1.12477 1.2044 1.11364 1.2044C1.12663 1.2044 1.14147 1.2044 1.15632 1.20255C1.2027 1.19883 1.16003 1.20069 1.14704 1.19883C1.16188 1.20069 1.17487 1.2044 1.18972 1.20811C1.20456 1.21182 1.21755 1.21739 1.23239 1.2211C1.17673 1.20069 1.22497 1.21924 1.23796 1.22852C1.24724 1.23594 1.25837 1.24151 1.26765 1.24893C1.32517 1.2879 1.38269 1.33057 1.4402 1.36954C1.81501 1.63301 2.18796 1.89649 2.56276 2.15997C3.16394 2.58487 3.76696 3.00792 4.36813 3.43282C5.0528 3.91524 5.73933 4.39766 6.42399 4.88194C7.05856 5.32911 7.69313 5.77628 8.3277 6.22344C8.76188 6.5296 9.19606 6.83389 9.62839 7.14005C9.72858 7.21055 9.82878 7.28106 9.92897 7.35157C9.93825 7.35899 9.94753 7.36456 9.95681 7.37198C9.98093 7.39053 9.9364 7.34786 9.95681 7.37383C9.96608 7.38682 9.97907 7.3961 9.9902 7.40723C10.018 7.43692 9.96979 7.37198 9.98835 7.40723C9.99577 7.42022 10.0032 7.43506 10.0106 7.44805C10.0273 7.47589 10.0106 7.41465 10.0069 7.44434C10.005 7.45733 10.018 7.48516 10.0199 7.49815C10.018 7.48516 10.0199 7.44249 10.0162 7.49073C10.0162 7.50557 10.0162 7.52042 10.0143 7.53526C10.0143 7.49815 10.018 7.50557 10.0106 7.53897C10.0088 7.54825 9.99577 7.59278 10.0069 7.55938C10.0199 7.51856 9.99206 7.58721 9.99206 7.58721C9.98835 7.59649 9.96237 7.62989 9.99577 7.58721C9.98649 7.6002 9.9735 7.60948 9.96423 7.62247C9.94011 7.65215 9.96052 7.62803 9.96237 7.62618C9.75456 7.7876 9.53005 7.93048 9.31481 8.08262C8.80456 8.44258 8.29245 8.80254 7.7822 9.16251C7.11794 9.63008 6.45368 10.0995 5.78942 10.5671C5.11218 11.044 4.43679 11.5208 3.75954 11.9958C3.21218 12.3817 2.66667 12.7658 2.11931 13.1518C1.8447 13.3447 1.57009 13.5396 1.29362 13.7325C1.2862 13.7381 1.27692 13.7437 1.2695 13.7492C1.26765 13.7511 1.26579 13.7511 1.26394 13.7529C1.25651 13.7566 1.18229 13.7993 1.21569 13.7845C1.24352 13.7715 1.16559 13.7956 1.15446 13.7993C1.12106 13.8105 1.21569 13.8049 1.15446 13.7975C1.14147 13.7956 1.12477 13.7956 1.11179 13.7956C1.12292 13.7956 1.17116 13.8105 1.12292 13.7956C1.10993 13.7919 1.09509 13.7882 1.0821 13.7845C1.06169 13.7789 1.0487 13.7604 1.09138 13.7882C1.0821 13.7808 1.0654 13.7733 1.05427 13.7678C1.01345 13.7492 1.0487 13.7659 1.05983 13.7752C1.0487 13.7659 1.03942 13.7566 1.02829 13.7474C1.01901 13.7381 1.00974 13.727 1.00046 13.7158C1.03942 13.7548 1.01345 13.7362 1.00602 13.7214C1.00046 13.7084 0.991181 13.6954 0.985615 13.6843C1.01345 13.7362 0.991181 13.6973 0.985615 13.6787C0.983759 13.6694 0.970771 13.6231 0.978193 13.6602C0.993036 13.7047 0.981904 13.6323 0.981904 13.6286C0.978193 13.4839 0.855732 13.3429 0.703583 13.3503C0.555146 13.3577 0.421552 13.4728 0.425263 13.6286C0.43454 13.9719 0.67204 14.2836 1.01901 14.3411C1.20827 14.3727 1.39753 14.3374 1.5571 14.2279C1.63688 14.1723 1.71667 14.1166 1.79645 14.0591C2.21208 13.7659 2.6277 13.4728 3.04333 13.1815C3.67419 12.738 4.30505 12.2927 4.93405 11.8492C5.63542 11.3557 6.33493 10.8621 7.0363 10.3686C7.65417 9.93253 8.27204 9.49835 8.88991 9.06231C9.27956 8.7877 9.66921 8.51309 10.0589 8.23848C10.1201 8.19581 10.1832 8.15128 10.2444 8.1086C10.5042 7.9212 10.6415 7.6002 10.5394 7.28477C10.4838 7.11407 10.3743 6.98975 10.2314 6.8877C9.97351 6.70401 9.71374 6.52403 9.45583 6.34034C8.91032 5.95626 8.36481 5.57217 7.81931 5.18809C7.13464 4.70567 6.44997 4.22325 5.76716 3.74268C5.08991 3.26583 4.41267 2.78897 3.73542 2.31026C3.21589 1.94473 2.69821 1.57921 2.17868 1.21368C1.96901 1.06524 1.7612 0.911237 1.54782 0.768366C1.26765 0.580963 0.898408 0.625494 0.653486 0.846295C0.501337 0.981744 0.428974 1.18214 0.425263 1.38253C0.423408 1.46417 0.425263 1.54581 0.425263 1.62745C0.425263 2.07462 0.425263 2.52364 0.425263 2.97081C0.425263 3.68702 0.425263 4.40508 0.425263 5.1213C0.425263 5.96739 0.425263 6.81534 0.425263 7.66143C0.425263 8.5001 0.425263 9.33878 0.425263 10.1756C0.425263 10.8658 0.425263 11.5542 0.425263 12.2444C0.425263 12.6526 0.425263 13.0608 0.425263 13.469C0.425263 13.5229 0.425263 13.5785 0.425263 13.6323C0.425263 13.7771 0.55329 13.9181 0.703583 13.9107C0.855732 13.8995 0.981904 13.7845 0.981904 13.6286Z" fill="white"/>
</svg>
